<?xml version="1.0" encoding="UTF-8" standalone="no"?>
<!DOCTYPE svg PUBLIC "-//W3C//DTD SVG 1.1//EN" "http://www.w3.org/Graphics/SVG/1.1/DTD/svg11.dtd">
<svg width="100%" height="100%" viewBox="0 0 4096 4096" version="1.1" xmlns="http://www.w3.org/2000/svg" xmlns:xlink="http://www.w3.org/1999/xlink" xml:space="preserve" xmlns:serif="http://www.serif.com/" style="fill-rule:evenodd;clip-rule:evenodd;stroke-linecap:round;stroke-linejoin:round;stroke-miterlimit:1.5;">
    <g id="A" transform="matrix(1.58769,0,0,1.58769,-1247.22,-1346.86)">
        <g transform="matrix(0.883336,0.235918,-0.218711,0.818908,1301.35,189.252)">
            <path d="M1757,1315.02L1757,2452.91C1757,2718.43 1557.15,2934 1311,2934C1065.95,2934 867,2719.4 867,2455.07L867,1697.01C867,1326.67 1145.74,1026 1489.06,1026C1636.94,1026 1757,1155.5 1757,1315.02Z" style="fill:none;stroke:#fff;stroke-width:214.33px;"/>
        </g>
        <g transform="matrix(0.966136,0.258032,-0.258032,0.966136,1271.24,-281.571)">
            <path d="M1757,1295.17L1757,2490.23C1757,2490.23 1762.81,2836.51 2138.57,2737.56" style="fill:none;stroke:#fff;stroke-width:188.95px;"/>
        </g>
        <g transform="matrix(0.629848,0,0,0.629848,785.559,848.314)">
            <path d="M2839.65,1271.87C2839.65,1271.87 2795.04,1512.4 2464,1661" style="fill:none;stroke:#fff;stroke-width:300px;"/>
        </g>
    </g>
</svg>
